<svg width="1000" height="1000" viewBox="0 0 1000 1000" fill="none" xmlns="http://www.w3.org/2000/svg">
<g clip-path="url(#clip0_77_4)" filter="url(#filter0_b_77_4)">
<mask id="path-1-outside-1_77_4" maskUnits="userSpaceOnUse" x="114" y="111" width="786" height="824" fill="black">
<rect fill="white" x="114" y="111" width="786" height="824"/>
<path d="M204.711 923.4C188.245 923.4 172.645 919.5 157.911 911.7C143.178 904.767 133.211 892.633 128.011 875.3L141.011 872.7C142.745 885.7 148.378 894.367 157.911 898.7C167.445 903.033 177.845 905.2 189.111 905.2C228.978 905.2 264.511 894.367 295.711 872.7C326.911 851.033 354.645 824.167 378.911 792.1C402.311 760.9 422.245 729.7 438.711 698.5L601.211 394.3H551.811L560.911 381.3H609.011L672.711 261.7C682.245 244.367 693.945 224.867 707.811 203.2C721.678 181.533 737.711 162.9 755.911 147.3C774.978 130.833 795.778 122.6 818.311 122.6C859.045 122.6 882.011 142.533 887.211 182.4L878.111 186.3C874.645 173.3 865.545 166.8 850.811 166.8C841.278 166.8 830.445 172.433 818.311 183.7C807.045 194.967 796.211 207.533 785.811 221.4C776.278 235.267 768.911 246.1 763.711 253.9L689.611 381.3H758.511L749.411 394.3H681.811L485.511 733.6C453.445 789.067 415.745 834.567 372.411 870.1C328.211 905.633 272.311 923.4 204.711 923.4Z"/>
</mask>
<path d="M204.711 923.4C188.245 923.4 172.645 919.5 157.911 911.7C143.178 904.767 133.211 892.633 128.011 875.3L141.011 872.7C142.745 885.7 148.378 894.367 157.911 898.7C167.445 903.033 177.845 905.2 189.111 905.2C228.978 905.2 264.511 894.367 295.711 872.7C326.911 851.033 354.645 824.167 378.911 792.1C402.311 760.9 422.245 729.7 438.711 698.5L601.211 394.3H551.811L560.911 381.3H609.011L672.711 261.7C682.245 244.367 693.945 224.867 707.811 203.2C721.678 181.533 737.711 162.9 755.911 147.3C774.978 130.833 795.778 122.6 818.311 122.6C859.045 122.6 882.011 142.533 887.211 182.4L878.111 186.3C874.645 173.3 865.545 166.8 850.811 166.8C841.278 166.8 830.445 172.433 818.311 183.7C807.045 194.967 796.211 207.533 785.811 221.4C776.278 235.267 768.911 246.1 763.711 253.9L689.611 381.3H758.511L749.411 394.3H681.811L485.511 733.6C453.445 789.067 415.745 834.567 372.411 870.1C328.211 905.633 272.311 923.4 204.711 923.4Z" fill="url(#paint0_linear_77_4)"/>
<path d="M157.911 911.7L163.058 901.978L162.829 901.857L162.595 901.747L157.911 911.7ZM128.011 875.3L125.854 864.514L114.002 866.884L117.475 878.461L128.011 875.3ZM141.011 872.7L151.915 871.246L150.364 859.612L138.854 861.914L141.011 872.7ZM157.911 898.7L153.359 908.714L153.359 908.714L157.911 898.7ZM295.711 872.7L289.437 863.665L289.437 863.665L295.711 872.7ZM378.911 792.1L387.683 798.738L387.697 798.719L387.711 798.7L378.911 792.1ZM438.711 698.5L429.009 693.317L428.996 693.341L428.983 693.366L438.711 698.5ZM601.211 394.3L610.914 399.483L619.559 383.3H601.211V394.3ZM551.811 394.3L542.8 387.992L530.684 405.3H551.811V394.3ZM560.911 381.3V370.3H555.184L551.9 374.992L560.911 381.3ZM609.011 381.3V392.3H615.616L618.72 386.471L609.011 381.3ZM672.711 261.7L663.073 256.399L663.037 256.464L663.003 256.529L672.711 261.7ZM707.811 203.2L698.546 197.27L707.811 203.2ZM755.911 147.3L763.07 155.652L763.086 155.638L763.101 155.625L755.911 147.3ZM887.211 182.4L891.544 192.511L899.196 189.231L898.119 180.977L887.211 182.4ZM878.111 186.3L867.483 189.134L870.759 201.419L882.444 196.411L878.111 186.3ZM818.311 183.7L810.826 175.639L810.677 175.778L810.533 175.922L818.311 183.7ZM785.811 221.4L777.011 214.8L776.875 214.981L776.747 215.168L785.811 221.4ZM763.711 253.9L754.559 247.798L754.372 248.078L754.203 248.369L763.711 253.9ZM689.611 381.3L680.103 375.769L670.488 392.3H689.611V381.3ZM758.511 381.3L767.523 387.608L779.639 370.3H758.511V381.3ZM749.411 394.3V405.3H755.139L758.423 400.608L749.411 394.3ZM681.811 394.3V383.3H675.467L672.29 388.791L681.811 394.3ZM485.511 733.6L475.99 728.091L475.988 728.094L485.511 733.6ZM372.411 870.1L379.303 878.673L379.345 878.64L379.386 878.606L372.411 870.1ZM204.711 912.4C190.062 912.4 176.226 908.95 163.058 901.978L152.765 921.422C169.063 930.05 186.427 934.4 204.711 934.4V912.4ZM162.595 901.747C151.021 896.301 142.961 886.852 138.547 872.139L117.475 878.461C123.461 898.415 135.334 913.233 153.228 921.653L162.595 901.747ZM130.169 886.086L143.169 883.486L138.854 861.914L125.854 864.514L130.169 886.086ZM130.108 874.154C132.197 889.824 139.483 902.407 153.359 908.714L162.463 888.686C157.273 886.327 153.292 881.576 151.915 871.246L130.108 874.154ZM153.359 908.714C164.429 913.745 176.395 916.2 189.111 916.2V894.2C179.294 894.2 170.461 892.321 162.463 888.686L153.359 908.714ZM189.111 916.2C231.103 916.2 268.849 904.747 301.986 881.735L289.437 863.665C260.174 883.987 226.853 894.2 189.111 894.2V916.2ZM301.986 881.735C334.194 859.368 362.757 831.676 387.683 798.738L370.14 785.462C346.533 816.657 319.629 842.698 289.437 863.665L301.986 881.735ZM387.711 798.7C411.423 767.084 431.676 735.397 448.44 703.634L428.983 693.366C412.813 724.003 393.2 754.716 370.111 785.5L387.711 798.7ZM448.414 703.683L610.914 399.483L591.509 389.117L429.009 693.317L448.414 703.683ZM601.211 383.3H551.811V405.3H601.211V383.3ZM560.823 400.608L569.923 387.608L551.9 374.992L542.8 387.992L560.823 400.608ZM560.911 392.3H609.011V370.3H560.911V392.3ZM618.72 386.471L682.42 266.871L663.003 256.529L599.303 376.129L618.72 386.471ZM682.35 267.001C691.737 249.934 703.304 230.648 717.076 209.13L698.546 197.27C684.585 219.085 672.752 238.8 663.073 256.399L682.35 267.001ZM717.076 209.13C730.405 188.303 745.744 170.502 763.07 155.652L748.753 138.948C729.678 155.298 712.951 174.764 698.546 197.27L717.076 209.13ZM763.101 155.625C780.422 140.666 798.733 133.6 818.311 133.6V111.6C792.823 111.6 769.534 121.001 748.722 138.975L763.101 155.625ZM818.311 133.6C836.937 133.6 849.987 138.142 858.876 145.857C867.745 153.555 873.938 165.684 876.304 183.823L898.119 180.977C895.285 159.249 887.394 141.478 873.297 129.243C859.219 117.024 840.419 111.6 818.311 111.6V133.6ZM882.878 172.289L873.778 176.189L882.444 196.411L891.544 192.511L882.878 172.289ZM888.74 183.466C886.487 175.018 882.11 167.745 875.08 162.724C868.152 157.776 859.749 155.8 850.811 155.8V177.8C856.607 177.8 860.12 179.074 862.293 180.626C864.363 182.105 866.269 184.582 867.483 189.134L888.74 183.466ZM850.811 155.8C837.067 155.8 823.617 163.762 810.826 175.639L825.796 191.761C837.272 181.105 845.489 177.8 850.811 177.8V155.8ZM810.533 175.922C798.868 187.587 787.697 200.553 777.011 214.8L794.611 228C804.726 214.514 815.221 202.346 826.09 191.478L810.533 175.922ZM776.747 215.168C767.203 229.05 759.802 239.933 754.559 247.798L772.864 260.002C778.021 252.267 785.353 241.483 794.876 227.632L776.747 215.168ZM754.203 248.369L680.103 375.769L699.12 386.831L773.22 259.43L754.203 248.369ZM689.611 392.3H758.511V370.3H689.611V392.3ZM749.5 374.992L740.4 387.992L758.423 400.608L767.523 387.608L749.5 374.992ZM749.411 383.3H681.811V405.3H749.411V383.3ZM672.29 388.791L475.99 728.091L495.033 739.109L691.333 399.809L672.29 388.791ZM475.988 728.094C444.49 782.578 407.611 827.011 365.436 861.594L379.386 878.606C423.878 842.123 462.399 795.555 495.034 739.106L475.988 728.094ZM365.519 861.527C323.63 895.202 270.305 912.4 204.711 912.4V934.4C274.318 934.4 332.792 916.064 379.303 878.673L365.519 861.527Z" fill="url(#paint1_linear_77_4)" mask="url(#path-1-outside-1_77_4)"/>
</g>
<defs>
<filter id="filter0_b_77_4" x="-4" y="-4" width="1008" height="1008" filterUnits="userSpaceOnUse" color-interpolation-filters="sRGB">
<feFlood flood-opacity="0" result="BackgroundImageFix"/>
<feGaussianBlur in="BackgroundImageFix" stdDeviation="2"/>
<feComposite in2="SourceAlpha" operator="in" result="effect1_backgroundBlur_77_4"/>
<feBlend mode="normal" in="SourceGraphic" in2="effect1_backgroundBlur_77_4" result="shape"/>
</filter>
<linearGradient id="paint0_linear_77_4" x1="99" y1="323.711" x2="1022" y2="323.711" gradientUnits="userSpaceOnUse">
<stop stop-color="#22556C"/>
<stop offset="0.5" stop-color="#3A8FB7"/>
<stop offset="1" stop-color="#F4A7B9"/>
</linearGradient>
<linearGradient id="paint1_linear_77_4" x1="99" y1="323.711" x2="1022" y2="323.711" gradientUnits="userSpaceOnUse">
<stop stop-color="#22556C"/>
<stop offset="0.5" stop-color="#3A8FB7"/>
<stop offset="1" stop-color="#F4A7B9"/>
</linearGradient>
<clipPath id="clip0_77_4">
<rect width="1000" height="1000" fill="white"/>
</clipPath>
</defs>
</svg>
